# xmcd
#
# Track frame offsets: 
#        150
#        22802
#        47867
#        73215
#        104589
#        127591
#        155445
#        182245
#        208727
#        227053
#        251497
#
# Disc length: 3717 seconds
#
# Revision: 0
# Processed by: cddbd v1.5.2PL0 Copyright (c) Steve Scherf et al.
# Submitted via: ExactAudioCopy v0.99pb3
#
DISCID=940e830b
DTITLE=Cargo - Mars
DYEAR=2009
DGENRE=JPop
TTITLE0=A.N.G.E.L.
TTITLE1=Hello
TTITLE2=You
TTITLE3=You Make Me Feel My Heartbeat
TTITLE4=Undo
TTITLE5=Stuck On This
TTITLE6=Winter Song
TTITLE7=Star Sign
TTITLE8=No Time To Play
TTITLE9=Ascension
TTITLE10=Euthymia
EXTD=
EXTT0=
EXTT1=
EXTT2=
EXTT3=
EXTT4=
EXTT5=
EXTT6=
EXTT7=
EXTT8=
EXTT9=
EXTT10=
PLAYORDER=
